<svg width="429" height="333" viewBox="0 0 429 333" fill="none" xmlns="http://www.w3.org/2000/svg">
<rect width="429" height="333" fill="#FF6300"/>
<circle cx="172" cy="70" r="29" fill="#FFCF00"/>
<path d="M281.142 198.437C274.133 198.437 269.585 201.339 265.283 208.938C262.21 200.785 256.554 198.575 251.39 198.575C247.333 198.575 241.801 200.097 238.852 206.175L238.237 201.753C238.173 201.219 237.939 200.729 237.577 200.373C237.215 200.018 236.751 199.821 236.269 199.819H227.91C227.634 199.817 227.361 199.876 227.106 199.993C226.851 200.111 226.619 200.284 226.425 200.502C226.23 200.721 226.076 200.981 225.972 201.267C225.868 201.553 225.816 201.859 225.819 202.168V253.426C225.816 253.735 225.868 254.042 225.972 254.327C226.076 254.613 226.23 254.873 226.425 255.092C226.619 255.311 226.851 255.484 227.106 255.601C227.361 255.718 227.634 255.778 227.91 255.775H237.623C237.899 255.777 238.172 255.718 238.427 255.6C238.681 255.483 238.913 255.309 239.107 255.091C239.301 254.872 239.455 254.612 239.559 254.327C239.662 254.041 239.714 253.735 239.712 253.426V225.793C239.712 219.439 242.663 213.497 248.071 213.497C253.727 213.497 256.431 218.334 256.431 225.657V253.288C256.428 253.596 256.48 253.902 256.584 254.188C256.688 254.474 256.842 254.734 257.036 254.953C257.231 255.171 257.462 255.344 257.717 255.462C257.972 255.579 258.245 255.639 258.521 255.636H268.11C268.386 255.639 268.659 255.579 268.914 255.462C269.169 255.344 269.4 255.171 269.595 254.953C269.789 254.734 269.943 254.474 270.047 254.188C270.151 253.902 270.203 253.596 270.2 253.288V225.656C270.2 219.3 272.658 213.773 278.19 213.773C283.722 213.773 286.181 218.472 286.181 225.378V253.289C286.178 253.598 286.23 253.904 286.335 254.19C286.439 254.476 286.592 254.735 286.787 254.954C286.982 255.172 287.213 255.345 287.468 255.462C287.723 255.58 287.997 255.639 288.272 255.636H298.106C298.382 255.639 298.655 255.579 298.91 255.462C299.165 255.344 299.396 255.171 299.591 254.953C299.785 254.734 299.939 254.474 300.043 254.188C300.147 253.902 300.199 253.596 300.196 253.288V225.104C300.074 204.38 290.975 198.438 281.142 198.438V198.437ZM192.873 198.163C186.971 198.163 181.441 200.234 177.137 206.177V175.365C177.137 174.121 176.154 173.016 175.048 173.016H164.475C163.246 173.016 162.385 173.984 162.385 175.365V253.426C162.385 254.67 163.369 255.775 164.476 255.775H173.695C174.679 255.775 175.663 254.946 175.787 253.841L176.4 248.59C181.072 255.361 186.727 256.882 193.12 256.882C207.872 256.882 217.952 245.138 217.952 227.59C217.828 209.214 207.504 198.163 192.873 198.163ZM191.275 241.958C184.146 241.958 178.367 235.465 178.367 227.453C178.367 219.439 184.146 212.946 191.275 212.946C198.405 212.946 204.184 219.439 204.184 227.453C204.184 235.465 198.405 241.958 191.275 241.958ZM271.552 172.048C269.463 172.048 267.988 173.153 267.127 174.397V167.906C267.127 167.628 267.004 167.491 266.758 167.491H264.422C264.177 167.491 264.053 167.63 264.053 167.906V187.387C264.053 187.664 264.177 187.801 264.422 187.801H266.635C266.88 187.801 267.004 187.662 267.004 187.387V185.452C267.864 186.972 269.463 187.94 271.675 187.94C275.732 187.94 278.068 184.347 278.068 180.065C277.946 175.643 275.61 172.05 271.552 172.05V172.048ZM270.937 184.76C268.479 184.76 267.127 182.687 267.127 179.924C267.127 177.161 268.601 175.089 270.937 175.089C273.273 175.089 274.748 177.161 274.748 179.924C274.748 182.687 273.273 184.76 270.937 184.76ZM304.868 172.048C302.656 172.048 301.18 173.155 300.689 174.397V172.878C300.689 172.602 300.566 172.463 300.32 172.463H298.106C297.861 172.463 297.737 172.602 297.737 172.879V187.385C297.737 187.662 297.861 187.801 298.106 187.801H300.566C300.811 187.801 300.935 187.662 300.935 187.385V178.821C300.935 176.47 302.163 175.089 304.253 175.089C305.729 175.089 306.958 176.47 306.958 178.129V187.385C306.958 187.662 307.082 187.801 307.327 187.801H309.785C310.031 187.801 310.154 187.662 310.154 187.385V177.992C310.031 174.536 308.188 172.048 304.868 172.048ZM319.62 175.088C321.219 175.088 322.325 176.056 322.816 177.438V177.577C322.816 177.714 323.063 177.853 323.185 177.853H325.521C325.767 177.853 325.89 177.714 325.89 177.436C325.89 177.436 325.89 176.609 325.275 175.365V175.226C325.275 175.226 325.275 175.088 325.152 175.088C324.415 173.846 323.309 173.155 323.309 173.155C322.325 172.463 321.095 172.048 319.62 172.048C315.563 172.048 312.736 175.641 312.736 179.924C312.736 184.346 315.563 187.8 319.62 187.8C321.095 187.8 322.325 187.385 323.309 186.695C323.309 186.695 324.415 186.004 325.152 184.76C325.152 184.76 325.152 184.622 325.275 184.622C325.275 184.622 325.275 184.483 325.399 184.483V184.344C326.014 183.241 326.014 182.412 326.014 182.412C326.014 182.134 325.89 181.995 325.645 181.995H323.309C323.185 181.995 322.94 182.134 322.94 182.273C322.448 183.655 321.342 184.622 319.743 184.622C317.531 184.622 316.056 182.549 316.056 179.787C315.932 177.161 317.284 175.089 319.62 175.089V175.088ZM335.233 172.048C330.931 172.048 328.104 175.778 328.104 179.924C328.104 184.07 330.808 187.8 335.233 187.8C339.658 187.8 342.363 184.209 342.363 179.924C342.363 175.641 339.536 172.048 335.233 172.048ZM335.233 184.76C333.02 184.76 331.299 182.826 331.299 179.924C331.299 177.024 333.02 175.089 335.233 175.089C337.569 175.089 339.167 177.024 339.167 179.924C339.167 182.965 337.446 184.76 335.233 184.76ZM293.558 172.463H291.468C291.222 172.463 291.099 172.602 291.099 172.879V174.675C290.238 173.153 288.641 172.187 286.427 172.187C282.37 172.187 280.035 175.778 280.035 180.063C280.035 184.346 282.37 187.938 286.427 187.938C288.517 187.938 290.116 186.97 291.099 185.451V187.524C291.099 187.8 291.222 187.938 291.468 187.938H293.68C293.927 187.938 294.049 187.8 294.049 187.522V172.878C293.927 172.6 293.804 172.463 293.558 172.463ZM287.042 184.76C284.706 184.76 283.231 182.687 283.231 179.924C283.231 177.161 284.706 175.089 287.042 175.089C289.501 175.089 290.853 177.161 290.853 179.924C290.975 182.687 289.501 184.76 287.042 184.76Z" fill="white"/>
<path d="M99.0735 231.597H111.243C116.407 231.597 120.588 226.9 120.588 221.097V173.568C120.592 173.114 120.516 172.664 120.363 172.244C120.211 171.823 119.985 171.441 119.698 171.12C119.412 170.798 119.072 170.544 118.697 170.371C118.322 170.199 117.92 170.112 117.514 170.116H111.981C103.131 170.114 96 178.127 96 188.074V228.003C96 229.937 97.3524 231.594 99.0735 231.594V231.597ZM352.075 248.176C359.574 243.893 362.894 236.156 363.139 227.866C363.139 220.958 361.541 215.293 358.837 210.734L363.507 204.656C364.246 203.688 364.122 202.029 363.139 201.202L355.641 194.707C354.657 193.878 353.305 194.155 352.69 195.123L348.633 201.063C344.699 198.99 340.273 198.024 335.848 198.024C321.464 198.024 308.064 207.834 308.064 227.451C308.064 245.412 319.005 256.604 335.848 256.604C345.068 256.604 348.386 260.887 348.386 266.551C348.386 273.736 342.363 277.19 335.725 277.19C329.332 277.19 324.169 274.841 323.063 267.38C322.939 266.275 321.957 265.446 320.973 265.446H311.015C309.785 265.446 308.801 266.551 308.925 267.934C309.663 282.993 318.883 291.973 335.725 291.973C349.863 291.973 363.631 283.683 363.631 266.414C363.507 263.512 363.507 253.978 352.075 248.176ZM335.601 241.821C328.471 241.821 322.694 235.327 322.694 227.314C322.694 219.3 328.471 212.807 335.601 212.807C342.732 212.807 348.51 219.3 348.51 227.314C348.51 235.328 342.732 241.82 335.601 241.82V241.821Z" fill="white"/>
<rect x="70" y="157" width="63" height="94" fill="#FF6300"/>
<rect x="248" y="157" width="116" height="34" fill="#FF6300"/>
<g filter="url(#filter0_d)">
<path d="M63.32 168V106.44H72.38C74.3 106.44 75.56 107.34 76.16 109.14L77.12 113.7C78.2 112.5 79.32 111.4 80.48 110.4C81.68 109.4 82.94 108.54 84.26 107.82C85.62 107.1 87.06 106.54 88.58 106.14C90.14 105.7 91.84 105.48 93.68 105.48C97.56 105.48 100.74 106.54 103.22 108.66C105.74 110.74 107.62 113.52 108.86 117C109.82 114.96 111.02 113.22 112.46 111.78C113.9 110.3 115.48 109.1 117.2 108.18C118.92 107.26 120.74 106.58 122.66 106.14C124.62 105.7 126.58 105.48 128.54 105.48C131.94 105.48 134.96 106 137.6 107.04C140.24 108.08 142.46 109.6 144.26 111.6C146.06 113.6 147.42 116.04 148.34 118.92C149.3 121.8 149.78 125.1 149.78 128.82V168H134.96V128.82C134.96 124.9 134.1 121.96 132.38 120C130.66 118 128.14 117 124.82 117C123.3 117 121.88 117.26 120.56 117.78C119.28 118.3 118.14 119.06 117.14 120.06C116.18 121.02 115.42 122.24 114.86 123.72C114.3 125.2 114.02 126.9 114.02 128.82V168H99.14V128.82C99.14 124.7 98.3 121.7 96.62 119.82C94.98 117.94 92.56 117 89.36 117C87.2 117 85.18 117.54 83.3 118.62C81.46 119.66 79.74 121.1 78.14 122.94V168H63.32ZM177.427 106.44V168H162.547V106.44H177.427ZM179.467 88.5C179.467 89.78 179.207 90.98 178.687 92.1C178.167 93.22 177.467 94.2 176.587 95.04C175.747 95.88 174.747 96.56 173.587 97.08C172.427 97.56 171.187 97.8 169.867 97.8C168.587 97.8 167.367 97.56 166.207 97.08C165.087 96.56 164.107 95.88 163.267 95.04C162.427 94.2 161.747 93.22 161.227 92.1C160.747 90.98 160.507 89.78 160.507 88.5C160.507 87.18 160.747 85.94 161.227 84.78C161.747 83.62 162.427 82.62 163.267 81.78C164.107 80.94 165.087 80.28 166.207 79.8C167.367 79.28 168.587 79.02 169.867 79.02C171.187 79.02 172.427 79.28 173.587 79.8C174.747 80.28 175.747 80.94 176.587 81.78C177.467 82.62 178.167 83.62 178.687 84.78C179.207 85.94 179.467 87.18 179.467 88.5ZM204.596 114C205.836 112.76 207.136 111.62 208.496 110.58C209.896 109.5 211.356 108.6 212.876 107.88C214.436 107.12 216.096 106.54 217.856 106.14C219.616 105.7 221.536 105.48 223.616 105.48C226.976 105.48 229.956 106.06 232.556 107.22C235.156 108.34 237.316 109.94 239.036 112.02C240.796 114.06 242.116 116.52 242.996 119.4C243.916 122.24 244.376 125.38 244.376 128.82V168H229.556V128.82C229.556 125.06 228.696 122.16 226.976 120.12C225.256 118.04 222.636 117 219.116 117C216.556 117 214.156 117.58 211.916 118.74C209.676 119.9 207.556 121.48 205.556 123.48V168H190.736V106.44H199.796C201.716 106.44 202.976 107.34 203.576 109.14L204.596 114ZM271.49 113.04C273.89 110.8 276.53 108.98 279.41 107.58C282.29 106.18 285.67 105.48 289.55 105.48C292.91 105.48 295.89 106.06 298.49 107.22C301.09 108.34 303.25 109.94 304.97 112.02C306.73 114.06 308.05 116.52 308.93 119.4C309.85 122.24 310.31 125.38 310.31 128.82V168H295.49V128.82C295.49 125.06 294.63 122.16 292.91 120.12C291.19 118.04 288.57 117 285.05 117C282.49 117 280.09 117.58 277.85 118.74C275.61 119.9 273.49 121.48 271.49 123.48V168H256.67V78.84H271.49V113.04ZM355.124 141.72C350.844 141.92 347.244 142.3 344.324 142.86C341.404 143.38 339.064 144.06 337.304 144.9C335.544 145.74 334.284 146.72 333.524 147.84C332.764 148.96 332.384 150.18 332.384 151.5C332.384 154.1 333.144 155.96 334.664 157.08C336.224 158.2 338.244 158.76 340.724 158.76C343.764 158.76 346.384 158.22 348.584 157.14C350.824 156.02 353.004 154.34 355.124 152.1V141.72ZM321.164 115.02C328.244 108.54 336.764 105.3 346.724 105.3C350.324 105.3 353.544 105.9 356.384 107.1C359.224 108.26 361.624 109.9 363.584 112.02C365.544 114.1 367.024 116.6 368.024 119.52C369.064 122.44 369.584 125.64 369.584 129.12V168H362.864C361.464 168 360.384 167.8 359.624 167.4C358.864 166.96 358.264 166.1 357.824 164.82L356.504 160.38C354.944 161.78 353.424 163.02 351.944 164.1C350.464 165.14 348.924 166.02 347.324 166.74C345.724 167.46 344.004 168 342.164 168.36C340.364 168.76 338.364 168.96 336.164 168.96C333.564 168.96 331.164 168.62 328.964 167.94C326.764 167.22 324.864 166.16 323.264 164.76C321.664 163.36 320.424 161.62 319.544 159.54C318.664 157.46 318.224 155.04 318.224 152.28C318.224 150.72 318.484 149.18 319.004 147.66C319.524 146.1 320.364 144.62 321.524 143.22C322.724 141.82 324.264 140.5 326.144 139.26C328.024 138.02 330.324 136.94 333.044 136.02C335.804 135.1 339.004 134.36 342.644 133.8C346.284 133.2 350.444 132.84 355.124 132.72V129.12C355.124 125 354.244 121.96 352.484 120C350.724 118 348.184 117 344.864 117C342.464 117 340.464 117.28 338.864 117.84C337.304 118.4 335.924 119.04 334.724 119.76C333.524 120.44 332.424 121.06 331.424 121.62C330.464 122.18 329.384 122.46 328.184 122.46C327.144 122.46 326.264 122.2 325.544 121.68C324.824 121.12 324.244 120.48 323.804 119.76L321.164 115.02Z" fill="white"/>
</g>
<defs>
<filter id="filter0_d" x="59.32" y="78.8401" width="314.264" height="98.12" filterUnits="userSpaceOnUse" color-interpolation-filters="sRGB">
<feFlood flood-opacity="0" result="BackgroundImageFix"/>
<feColorMatrix in="SourceAlpha" type="matrix" values="0 0 0 0 0 0 0 0 0 0 0 0 0 0 0 0 0 0 127 0"/>
<feOffset dy="4"/>
<feGaussianBlur stdDeviation="2"/>
<feColorMatrix type="matrix" values="0 0 0 0 0 0 0 0 0 0 0 0 0 0 0 0 0 0 0.25 0"/>
<feBlend mode="normal" in2="BackgroundImageFix" result="effect1_dropShadow"/>
<feBlend mode="normal" in="SourceGraphic" in2="effect1_dropShadow" result="shape"/>
</filter>
</defs>
</svg>
